<svg xmlns="http://www.w3.org/2000/svg" version="1.1" xmlns:xlink="http://www.w3.org/1999/xlink" xmlns:svgjs="http://svgjs.dev/svgjs" width="400" height="400" preserveAspectRatio="none" viewBox="0 0 400 400"><g mask="url(&quot;#SvgjsMask2179&quot;)" fill="none"><use xlink:href="#SvgjsG2185" transform="translate(0, 0)" fill="rgba(255, 180, 4, 1)"></use></g><defs><mask id="SvgjsMask2179"><rect width="400" height="400" fill="#ffffff"></rect></mask><g id="SvgjsG2184"><path d="M15.964 4.774l-1.312 10.327H10.223L8.916 4.774h5.408L15.395 1.04 16 1.21l-1.024 3.562 0.988 0.002zM8.29 10.788s0.166-1.502-2.131-1.502H2.5c-2.293 0-2.131 1.502-2.132 1.502h7.922zM0.368 13.595s-0.162 1.506 2.132 1.506h3.659c2.297 0 2.131-1.506 2.131-1.506H0.369z m7.578-0.727a0.68 0.68 0 0 0 0.68-0.68c0-0.372-0.304-0.676-0.68-0.676H0.68C0.306 11.512 0 11.816 0 12.188a0.682 0.682 0 0 0 0.68 0.68h7.266z"></path></g><g id="SvgjsG2180"><path d="M7.741 5.269c-0.003 0.523-0.481 1.084-1.101 1.084v8.856c0 1.261-1.714 1.261-1.716 0V6.354c-0.602 0-1.127-0.465-1.126-1.159V0.315c-0.001-0.423 0.612-0.44 0.616 0.017v3.606h0.51V0.299c0-0.389 0.59-0.414 0.591 0.016v3.623h0.526V0.307C6.044-0.103 6.618-0.12 6.616 0.323v3.615h0.526V0.307c-0.002-0.406 0.597-0.423 0.599 0.016v4.946zM12.309 1.449v13.76c0.002 1.229-1.715 1.211-1.717 0V9.746h-0.912V1.449c-0.001-1.932 2.631-1.932 2.629 0z"></path></g><g id="SvgjsG2183"><path d="M15.065 12.151H0.02c0 1.333 1.015 1.95 1.83 1.95h11.386c0.975 0 1.83-0.767 1.829-1.951zM12.853 2.166H1.869v7.208c0 0.976 0.843 1.75 1.755 1.75h7.121c1.031 0 1.731-0.863 1.731-1.749V8.773c2.031 0 3.505-1.527 3.505-3.303 0-1.815-1.445-3.303-3.126-3.303z m1.832 3.305c0 1.036-0.763 2.025-2.21 1.931V3.519l0.378 0 0 0.001c1.391 0 1.837 1.318 1.832 1.952v-0.001z"></path></g><g id="SvgjsG2182"><path d="M12.049 4.244l-1.49 11.735H5.527L4.041 4.244h6.146L11.403 0 12.091 0.193l-1.164 4.048 1.122 0.003z" fill-rule="evenodd"></path></g><g id="SvgjsG2181"><path d="M14.555 6.667L13.239 3.302c-0.243-0.635-0.779-1.18-1.791-1.177H9.598v-0.88c-0.004-0.35-0.194-0.528-0.505-0.525h-2.157C6.622 0.717 6.432 0.895 6.432 1.245v0.88h-1.88c-1.007-0.003-1.543 0.542-1.791 1.177L1.445 6.667c-0.518 0.062-1.44 0.668-1.445 1.811V12.752h1.286v1.366c-0.003 1.675 2.398 1.655 2.395 0V12.752h8.638v1.366c0.003 1.655 2.404 1.675 2.405 0V12.752H16V8.478c0.002-1.144-0.922-1.749-1.445-1.811z m-12.032 3.473c-0.614 0-1.111-0.507-1.108-1.128-0.003-0.629 0.494-1.136 1.108-1.138 0.611 0.002 1.107 0.509 1.108 1.138-0.001 0.621-0.498 1.128-1.108 1.128z m5.482-3.552H2.81l0.989-2.603c0.121-0.37 0.307-0.637 0.743-0.643h6.926c0.43 0.006 0.616 0.274 0.742 0.643L13.2 6.588H8.005z m5.481 3.552c-0.616 0-1.112-0.507-1.108-1.128-0.004-0.629 0.493-1.136 1.109-1.138 0.61 0.002 1.106 0.509 1.108 1.138-0.003 0.621-0.499 1.128-1.108 1.128z"></path></g><g id="SvgjsG2185"><use xlink:href="#SvgjsG2180" transform="translate(0, 0)" fill="rgba(5, 186, 221, 1)"></use><use xlink:href="#SvgjsG2181" transform="translate(0, 50)" fill="rgba(5, 186, 221, 1)"></use><use xlink:href="#SvgjsG2180" transform="translate(0, 100)" fill="rgba(255, 180, 4, 1)"></use><use xlink:href="#SvgjsG2180" transform="translate(0, 150)" fill="rgba(255, 180, 4, 1)"></use><use xlink:href="#SvgjsG2180" transform="translate(0, 200)" fill="rgba(255, 180, 4, 1)"></use><use xlink:href="#SvgjsG2182" transform="translate(0, 250)" fill="rgba(5, 186, 221, 1)"></use><use xlink:href="#SvgjsG2180" transform="translate(0, 300)" fill="rgba(5, 186, 221, 1)"></use><use xlink:href="#SvgjsG2180" transform="translate(0, 350)" fill="rgba(5, 186, 221, 1)"></use><use xlink:href="#SvgjsG2180" transform="translate(50, 0)" fill="rgba(255, 180, 4, 1)"></use><use xlink:href="#SvgjsG2183" transform="translate(50, 50)" fill="rgba(255, 180, 4, 1)"></use><use xlink:href="#SvgjsG2184" transform="translate(50, 100)" fill="rgba(5, 186, 221, 1)"></use><use xlink:href="#SvgjsG2180" transform="translate(50, 150)" fill="rgba(5, 186, 221, 1)"></use><use xlink:href="#SvgjsG2184" transform="translate(50, 200)" fill="rgba(255, 180, 4, 1)"></use><use xlink:href="#SvgjsG2182" transform="translate(50, 250)" fill="rgba(5, 186, 221, 1)"></use><use xlink:href="#SvgjsG2184" transform="translate(50, 300)" fill="rgba(5, 186, 221, 1)"></use><use xlink:href="#SvgjsG2180" transform="translate(50, 350)" fill="rgba(5, 186, 221, 1)"></use><use xlink:href="#SvgjsG2181" transform="translate(100, 0)" fill="rgba(255, 180, 4, 1)"></use><use xlink:href="#SvgjsG2181" transform="translate(100, 50)" fill="rgba(5, 186, 221, 1)"></use><use xlink:href="#SvgjsG2181" transform="translate(100, 100)" fill="rgba(255, 180, 4, 1)"></use><use xlink:href="#SvgjsG2180" transform="translate(100, 150)" fill="rgba(5, 186, 221, 1)"></use><use xlink:href="#SvgjsG2181" transform="translate(100, 200)" fill="rgba(5, 186, 221, 1)"></use><use xlink:href="#SvgjsG2183" transform="translate(100, 250)" fill="rgba(255, 180, 4, 1)"></use><use xlink:href="#SvgjsG2182" transform="translate(100, 300)" fill="rgba(255, 180, 4, 1)"></use><use xlink:href="#SvgjsG2183" transform="translate(100, 350)" fill="rgba(255, 180, 4, 1)"></use><use xlink:href="#SvgjsG2180" transform="translate(150, 0)" fill="rgba(5, 186, 221, 1)"></use><use xlink:href="#SvgjsG2183" transform="translate(150, 50)" fill="rgba(5, 186, 221, 1)"></use><use xlink:href="#SvgjsG2184" transform="translate(150, 100)" fill="rgba(255, 180, 4, 1)"></use><use xlink:href="#SvgjsG2181" transform="translate(150, 150)" fill="rgba(5, 186, 221, 1)"></use><use xlink:href="#SvgjsG2182" transform="translate(150, 200)" fill="rgba(255, 180, 4, 1)"></use><use xlink:href="#SvgjsG2182" transform="translate(150, 250)" fill="rgba(5, 186, 221, 1)"></use><use xlink:href="#SvgjsG2183" transform="translate(150, 300)" fill="rgba(255, 180, 4, 1)"></use><use xlink:href="#SvgjsG2180" transform="translate(150, 350)" fill="rgba(5, 186, 221, 1)"></use><use xlink:href="#SvgjsG2184" transform="translate(200, 0)" fill="rgba(5, 186, 221, 1)"></use><use xlink:href="#SvgjsG2181" transform="translate(200, 50)" fill="rgba(255, 180, 4, 1)"></use><use xlink:href="#SvgjsG2184" transform="translate(200, 100)" fill="rgba(5, 186, 221, 1)"></use><use xlink:href="#SvgjsG2180" transform="translate(200, 150)" fill="rgba(5, 186, 221, 1)"></use><use xlink:href="#SvgjsG2183" transform="translate(200, 200)" fill="rgba(255, 180, 4, 1)"></use><use xlink:href="#SvgjsG2181" transform="translate(200, 250)" fill="rgba(255, 180, 4, 1)"></use><use xlink:href="#SvgjsG2180" transform="translate(200, 300)" fill="rgba(5, 186, 221, 1)"></use><use xlink:href="#SvgjsG2180" transform="translate(200, 350)" fill="rgba(5, 186, 221, 1)"></use><use xlink:href="#SvgjsG2180" transform="translate(250, 0)" fill="rgba(255, 180, 4, 1)"></use><use xlink:href="#SvgjsG2183" transform="translate(250, 50)" fill="rgba(255, 180, 4, 1)"></use><use xlink:href="#SvgjsG2181" transform="translate(250, 100)" fill="rgba(5, 186, 221, 1)"></use><use xlink:href="#SvgjsG2180" transform="translate(250, 150)" fill="rgba(5, 186, 221, 1)"></use><use xlink:href="#SvgjsG2180" transform="translate(250, 200)" fill="rgba(255, 180, 4, 1)"></use><use xlink:href="#SvgjsG2181" transform="translate(250, 250)" fill="rgba(255, 180, 4, 1)"></use><use xlink:href="#SvgjsG2182" transform="translate(250, 300)" fill="rgba(5, 186, 221, 1)"></use><use xlink:href="#SvgjsG2181" transform="translate(250, 350)" fill="rgba(255, 180, 4, 1)"></use><use xlink:href="#SvgjsG2181" transform="translate(300, 0)" fill="rgba(5, 186, 221, 1)"></use><use xlink:href="#SvgjsG2181" transform="translate(300, 50)" fill="rgba(255, 180, 4, 1)"></use><use xlink:href="#SvgjsG2183" transform="translate(300, 100)" fill="rgba(5, 186, 221, 1)"></use><use xlink:href="#SvgjsG2184" transform="translate(300, 150)" fill="rgba(5, 186, 221, 1)"></use><use xlink:href="#SvgjsG2183" transform="translate(300, 200)" fill="rgba(255, 180, 4, 1)"></use><use xlink:href="#SvgjsG2184" transform="translate(300, 250)" fill="rgba(5, 186, 221, 1)"></use><use xlink:href="#SvgjsG2181" transform="translate(300, 300)" fill="rgba(255, 180, 4, 1)"></use><use xlink:href="#SvgjsG2183" transform="translate(300, 350)" fill="rgba(255, 180, 4, 1)"></use><use xlink:href="#SvgjsG2183" transform="translate(350, 0)" fill="rgba(5, 186, 221, 1)"></use><use xlink:href="#SvgjsG2183" transform="translate(350, 50)" fill="rgba(5, 186, 221, 1)"></use><use xlink:href="#SvgjsG2182" transform="translate(350, 100)" fill="rgba(255, 180, 4, 1)"></use><use xlink:href="#SvgjsG2182" transform="translate(350, 150)" fill="rgba(255, 180, 4, 1)"></use><use xlink:href="#SvgjsG2181" transform="translate(350, 200)" fill="rgba(255, 180, 4, 1)"></use><use xlink:href="#SvgjsG2181" transform="translate(350, 250)" fill="rgba(255, 180, 4, 1)"></use><use xlink:href="#SvgjsG2182" transform="translate(350, 300)" fill="rgba(255, 180, 4, 1)"></use><use xlink:href="#SvgjsG2184" transform="translate(350, 350)" fill="rgba(5, 186, 221, 1)"></use></g></defs></svg>